<svg xmlns="http://www.w3.org/2000/svg" width="24" height="24" viewBox="0 0 24 24"><defs><style>.a{fill:#ff13dc;opacity:0;}.b{fill:#6e6e6e;}</style></defs><rect class="a" width="24" height="24"/><path class="b" d="M13.3,10.669,11.163,12.81l5.857,5.856a.909.909,0,0,0,1.285,0h0l.853-.853a.909.909,0,0,0,0-1.285h0Z" transform="translate(3.721 3.556)"/><path class="b" d="M4.165,12.619l.968-.968c.355-.355-.015-.859-.015-.859l.995-.959a.909.909,0,0,0,1.28-.009l.541-.541,1.041,1.041,2.139-2.139L10.071,7.145l.352-.353a.909.909,0,0,0,0-1.285h0L10,5.08s1.257-1.411,1.52-1.675c1.11-1.109,3.567-.394,3.681-.962s-5.455-2.675-8.5.374L3.519,5.99a.909.909,0,0,0,0,1.285l0,0,.215.207-.941.98a.6.6,0,0,0-.854-.035l-.012.012L.955,9.41a.455.455,0,0,0,0,.643l2.566,2.567a.454.454,0,0,0,.642,0Z" transform="translate(0.274 0.402)"/><path class="b" d="M6.627,19.71c-1.049.377-2.361.851-3.267,1.175L4.53,17.619ZM18.76,2.133,3.84,17.053a.751.751,0,0,0-.176.275L2.248,21.237a.56.56,0,0,0,.733.739l3.929-1.4a.751.751,0,0,0,.28-.178L22.108,5.465a.638.638,0,0,0,.058-.9l-2.509-2.5a.638.638,0,0,0-.9.061Z" transform="translate(0.734 0.639)"/></svg>